<svg xmlns="http://www.w3.org/2000/svg" width="206" height="250"><path d="M7.297 208.34c0 3.969 0 6.11.652 6.668.528.465 1.336.683 3.766.683 1.644 0 2.851-.035 3.633-.87.375-.407.734-1.274.804-1.86.024-.277.09-.465.348-.465.207 0 .246.16.246.527 0 .34-.219 2.668-.473 3.57-.191.68-.343.837-1.953.837-4.468 0-6.527-.188-9.043-.188-.707 0-2.668.09-3.914.09-.402 0-.625-.09-.625-.312 0-.149.133-.243.508-.243.45 0 .832-.058 1.117-.125.617-.125.778-.808.899-1.699.152-1.312.152-3.758.152-6.61v-5.456c0-4.715 0-5.586-.062-6.575-.067-1.054-.305-1.554-1.34-1.769-.254-.063-.621-.094-1.024-.094-.34 0-.52-.062-.52-.281 0-.215.212-.277.684-.277 1.457 0 3.418.093 4.25.093.746 0 3.008-.093 4.23-.093.434 0 .65.062.65.277 0 .219-.184.281-.563.281-.34 0-.832.031-1.211.094-.84.152-1.086.687-1.153 1.77-.058.988-.058 1.859-.058 6.574Zm16-5.457c0-4.711 0-5.582-.059-6.57-.066-1.063-.375-1.583-1.058-1.739-.34-.097-.754-.129-1.121-.129-.313 0-.5-.062-.5-.308 0-.184.257-.25.75-.25 1.175 0 3.136.097 4.039.097.777 0 2.609-.097 3.793-.097.402 0 .648.066.648.25 0 .246-.184.308-.5.308a5.16 5.16 0 0 0-.926.094c-.84.156-1.086.688-1.152 1.774-.063.988-.063 1.859-.063 6.57v5.457c0 3.015 0 5.453.13 6.793.085.836.308 1.39 1.242 1.515.433.07 1.117.13 1.585.13.332 0 .493.093.493.242 0 .222-.246.308-.594.308-2.047 0-4.008-.086-4.84-.086-.719 0-2.68.086-3.918.086-.402 0-.625-.086-.625-.308 0-.149.125-.243.5-.243.473 0 .84-.058 1.117-.129.625-.125.805-.652.903-1.55.156-1.305.156-3.743.156-6.758Zm16.371 0c0-4.711 0-5.582-.063-6.574-.062-1.055-.308-1.551-1.335-1.77-.243-.062-.782-.094-1.215-.094-.344 0-.528-.062-.528-.277 0-.215.227-.281.688-.281 1.64 0 3.594.097 4.222.097 1.524 0 2.743-.097 3.793-.097 5.622 0 6.622 3.011 6.622 4.656 0 2.543-1.465 4.055-3.172 5.422 2.547.87 5.656 3.078 5.656 6.7 0 3.315-2.586 6.765-8.297 6.765-.746 0-3.57-.192-4.504-.192-.726 0-2.68.09-3.918.09-.402 0-.62-.09-.62-.308 0-.149.124-.243.491-.243.477 0 .852-.062 1.13-.129.616-.125.769-.804.894-1.699.156-1.312.156-3.758.156-6.61Zm4.125.652c0 .242.09.309.21.336.286.066.747.09 1.458.09 1.016 0 1.691-.117 2.215-.574.804-.66 1.27-1.766 1.27-3.278 0-2.054-1.204-4.77-3.856-4.77-.434 0-.715 0-1.016.067-.219.059-.281.18-.281.52l-.004 7.613Zm3.703 2.356c-.644-.465-1.367-.684-2.574-.746-.559-.032-.879-.032-1.34-.032-.121 0-.184.063-.184.223v7.348c0 2.043.09 2.57 1.094 2.972.836.344 1.547.375 2.266.375 1.394 0 3.75-.746 3.75-3.965 0-1.93-.649-4.527-3.016-6.175m15.86-3.008c0-4.711 0-5.582-.067-6.57-.062-1.063-.308-1.555-1.336-1.774-.25-.062-.777-.094-1.215-.094-.336 0-.523-.062-.523-.277 0-.215.219-.281.684-.281 1.648 0 3.609.097 4.253.097 1.055 0 3.422-.097 4.383-.097 1.957 0 4.035.195 5.719 1.34.867.585 2.11 2.164 2.11 4.246 0 2.293-.965 4.394-4.106 6.941 2.77 3.477 4.914 6.238 6.746 8.164 1.746 1.785 3.016 2.012 3.477 2.102.347.062.628.093.875.093.242 0 .378.094.378.247 0 .25-.222.308-.601.308h-2.95c-1.738 0-2.511-.152-3.327-.586-1.332-.71-2.512-2.164-4.25-4.558-1.243-1.707-2.672-3.817-3.075-4.278-.16-.187-.347-.215-.558-.215l-2.711-.066c-.153 0-.242.066-.242.25v.438c0 2.878 0 5.324.156 6.636.09.89.277 1.574 1.21 1.7.462.066 1.15.128 1.524.128.242 0 .367.09.367.243 0 .218-.214.308-.617.308-1.804 0-4.101-.09-4.57-.09-.582 0-2.543.09-3.79.09-.401 0-.62-.09-.62-.308 0-.153.125-.243.496-.243.469 0 .84-.062 1.121-.129.625-.125.777-.808.902-1.699.157-1.312.157-3.758.157-6.61l-.004-5.452Zm3.664 2.453c0 .336.058.46.277.555.652.222 1.578.316 2.363.316 1.242 0 1.645-.129 2.203-.535.926-.684 1.836-2.106 1.836-4.645 0-4.398-2.918-5.683-4.757-5.683-.774 0-1.336.031-1.645.133-.219.058-.277.187-.277.43Zm0 0" style="stroke:none;fill-rule:nonzero;fill:#000;fill-opacity:1"/><path d="M89.758 209.242c-.156 0-.219.059-.281.246l-1.676 4.434c-.309.773-.469 1.52-.469 1.89 0 .551.277.965 1.242.965h.469c.371 0 .457.055.457.243 0 .253-.18.308-.516.308-.996 0-2.332-.086-3.296-.086-.34 0-2.051.086-3.668.086-.399 0-.59-.055-.59-.308 0-.188.125-.243.37-.243.282 0 .716-.035.973-.058 1.422-.196 2.016-1.25 2.633-2.797l7.793-19.477c.375-.894.567-1.238.88-1.238.276 0 .464.281.776.996.743 1.7 5.711 14.356 7.7 19.067 1.183 2.789 2.086 3.218 2.73 3.378.477.094.934.13 1.305.13.254 0 .414.03.414.242 0 .253-.285.308-1.438.308-1.117 0-3.382 0-5.87-.055-.555-.035-.934-.035-.934-.253 0-.188.133-.243.437-.278.223-.062.438-.34.278-.715l-2.48-6.574c-.06-.152-.161-.21-.31-.21Zm6.336-1.55c.152 0 .183-.094.152-.184l-2.8-7.656c-.028-.133-.06-.286-.153-.286-.094 0-.156.153-.184.286l-2.855 7.625c-.031.12 0 .214.121.214Zm15.258-4.81c0-4.71 0-5.581-.063-6.57-.066-1.062-.316-1.554-1.34-1.773-.246-.062-.77-.094-1.21-.094-.337 0-.532-.062-.532-.277 0-.215.219-.281.688-.281 1.648 0 3.601.097 4.257.097 1.055 0 3.414-.097 4.38-.097 1.96 0 4.038.195 5.718 1.34.871.585 2.105 2.164 2.105 4.246 0 2.293-.953 4.394-4.101 6.941 2.773 3.477 4.914 6.238 6.75 8.164 1.73 1.785 3.008 2.012 3.469 2.102.34.062.629.093.875.093.254 0 .375.094.375.247 0 .25-.22.308-.598.308h-2.945c-1.743 0-2.516-.152-3.332-.586-1.32-.71-2.512-2.164-4.243-4.558-1.25-1.707-2.68-3.817-3.085-4.278-.145-.187-.332-.215-.551-.215l-2.707-.066c-.157 0-.25.066-.25.25v.438c0 2.878 0 5.324.156 6.636.094.89.281 1.574 1.21 1.7.466.066 1.153.128 1.524.128.246 0 .375.09.375.243 0 .218-.222.308-.625.308-1.793 0-4.101-.09-4.562-.09-.594 0-2.547.09-3.793.09-.402 0-.617-.09-.617-.308 0-.153.125-.243.5-.243.465 0 .832-.062 1.117-.129.613-.125.77-.808.902-1.699.153-1.312.153-3.758.153-6.61v-5.452h.003Zm3.656 2.454c0 .336.062.46.285.555.656.222 1.582.316 2.36.316 1.245 0 1.648-.129 2.206-.535.93-.684 1.832-2.106 1.832-4.645 0-4.398-2.918-5.683-4.75-5.683-.777 0-1.34.031-1.648.133-.223.058-.285.187-.285.43Zm24.363 3.965c0-1.672-.316-2.352-.715-3.262-.219-.488-4.383-7.312-5.472-8.926-.77-1.144-1.559-1.922-2.149-2.261-.394-.22-.933-.403-1.3-.403-.247 0-.47-.062-.47-.281 0-.184.223-.281.598-.281.563 0 2.887.097 3.914.097.649 0 1.922-.097 3.325-.097.312 0 .457.097.457.281 0 .187-.215.219-.676.34a.568.568 0 0 0-.434.558c0 .25.156.63.375 1.055.43.938 4.781 8.406 5.278 9.274.312-.747 4.23-7.567 4.668-8.524.304-.687.425-1.21.425-1.621 0-.309-.12-.648-.652-.773-.277-.063-.559-.122-.559-.309 0-.215.153-.281.528-.281 1.023 0 2.027.097 2.922.097.687 0 2.734-.097 3.328-.097.34 0 .554.066.554.25 0 .215-.25.308-.593.308-.305 0-.895.13-1.364.375-.648.313-1 .684-1.675 1.52-1.02 1.238-5.371 8.523-5.938 9.863-.469 1.117-.469 2.078-.469 3.098v2.539c0 .5 0 1.797.094 3.11.063.894.348 1.573 1.277 1.698.434.07 1.118.13 1.555.13.336 0 .496.09.496.242 0 .218-.254.308-.652.308-1.95 0-3.914-.09-4.754-.09-.777 0-2.73.09-3.879.09-.434 0-.684-.055-.684-.308 0-.153.153-.243.497-.243a4.54 4.54 0 0 0 1.085-.129c.618-.125.907-.804.961-1.699.098-1.312.098-2.61.098-3.11v-2.538h.008Zm21.09-3.684c0-5.304 3.516-12.16 12.832-12.16 7.738 0 12.547 4.492 12.547 11.598 0 7.105-4.969 12.71-12.856 12.71-8.918-.003-12.523-6.671-12.523-12.152m21.031.59c0-6.953-4.008-11.266-9.097-11.266-3.575 0-7.641 1.985-7.641 9.711 0 6.446 3.57 11.563 9.531 11.563 2.172 0 7.203-1.047 7.203-10.008m16.16 2.137c0 2.98 0 5.3.16 6.613.09.89.274 1.574 1.204 1.7.441.066 1.125.124 1.554.124.407 0 .536.094.536.243 0 .222-.223.312-.688.312-1.96 0-3.914-.09-4.723-.09-.808 0-2.77.09-3.945.09-.434 0-.648-.059-.648-.312 0-.149.125-.243.46-.243.465 0 .84-.058 1.122-.125.617-.125.777-.808.898-1.699.156-1.312.156-3.633.156-6.613v-5.453c0-4.715 0-5.586-.066-6.575-.055-1.054-.305-1.554-1.332-1.769-.254-.063-.777-.094-1.207-.094-.313 0-.535-.062-.535-.246 0-.25.254-.312.719-.312 1.609 0 3.57.093 4.468.093 1.184 0 7.492 0 8.207-.027.586-.031.961-.031 1.27-.133.187-.054.347-.18.504-.18.129 0 .21.126.21.282 0 .215-.156.586-.245 1.394-.032.309-.098 2.14-.157 2.508-.035.25-.09.438-.312.438-.211 0-.281-.16-.309-.5 0-.246 0-.743-.191-1.176-.207-.438-.871-.895-2.043-.926l-4.785-.101c-.188 0-.282.101-.282.437v7.754c0 .184.036.273.223.273l3.973-.023c.523 0 .965 0 1.39-.035.594-.031 1.036-.153 1.34-.555.164-.187.219-.309.403-.309.132 0 .195.09.195.274 0 .187-.164.965-.254 1.918a38.917 38.917 0 0 0-.125 2.273c0 .278 0 .59-.313.59-.187 0-.238-.219-.238-.441 0-.211-.066-.586-.191-.957-.164-.442-.621-.992-1.59-1.117-.774-.094-4.07-.094-4.59-.094-.152 0-.223.066-.223.277v2.512h.008ZM3.878 246.617c-3.042-2.664-3.85-6.137-3.85-9.144 0-2.11.652-5.77 3.636-8.5 2.234-2.043 5.188-3.29 9.816-3.29 1.926 0 3.075.126 4.504.313 1.184.149 2.172.43 3.106.524.336.039.473.19.473.375 0 .25-.094.62-.16 1.71-.06 1.024-.028 2.723-.094 3.344-.032.465-.094.719-.372.719-.25 0-.312-.254-.312-.688a4.47 4.47 0 0 0-1.21-2.859c-1.028-1.074-3.45-1.914-6.306-1.914-2.71 0-4.48.684-5.843 1.914-2.258 2.082-2.86 5.035-2.86 8.043 0 7.375 5.625 11.04 9.785 11.04 2.77 0 4.446-.313 5.688-1.743.523-.594.933-1.488 1.058-2.047.094-.492.153-.621.407-.621.215 0 .27.223.27.46 0 .38-.372 3.075-.677 4.13-.152.531-.28.683-.812.894-1.242.5-3.598.723-5.59.723-4.258-.004-7.828-.934-10.656-3.387m23.332-8.77c0-5.308 3.512-12.163 12.832-12.163 7.734 0 12.55 4.5 12.55 11.613 0 7.086-4.972 12.707-12.859 12.707-8.922.004-12.52-6.672-12.52-12.152m21.028.586c0-6.946-4.012-11.258-9.101-11.258-3.57 0-7.641 1.984-7.641 9.71 0 6.446 3.57 11.571 9.535 11.571 2.188-.004 7.211-1.062 7.211-10.027m15.074 6.914c.067 2.418.47 3.222 1.09 3.445.524.188 1.121.215 1.621.215.332 0 .524.062.524.246 0 .25-.29.309-.715.309-2.02 0-3.266-.086-3.852-.086-.289 0-1.746.086-3.36.086-.405 0-.687-.024-.687-.309 0-.184.188-.246.5-.246.399 0 .957-.027 1.395-.152.816-.247.93-1.149.965-3.848l.285-18.356c0-.62.094-1.058.394-1.058.348 0 .633.402 1.157.969.37.394 5.097 5.453 9.629 9.945 2.117 2.11 6.308 6.578 6.832 7.074h.16l-.313-13.922c-.035-1.89-.304-2.484-1.05-2.793-.47-.18-1.22-.18-1.649-.18-.375 0-.5-.097-.5-.288 0-.25.34-.274.805-.274 1.617 0 3.113.098 3.765.098.344 0 1.524-.098 3.04-.098.402 0 .714.024.714.274 0 .19-.183.289-.558.289-.309 0-.559 0-.93.086-.867.246-1.117.902-1.148 2.636l-.344 19.57c0 .68-.117.958-.399.958-.347 0-.722-.344-1.058-.684-1.957-1.86-5.938-5.926-9.176-9.117-3.371-3.344-6.824-7.227-7.387-7.813h-.093l.355 13.028Zm48.72 2.14c0 .836-.032.899-.411 1.121-2.016 1.051-5.063 1.395-7.48 1.395-7.618 0-14.356-3.602-14.356-12.156 0-4.965 2.578-8.438 5.41-10.145 2.98-1.797 5.738-2.02 8.348-2.02 2.148 0 4.886.38 5.508.505.64.129 1.734.308 2.449.336.379.039.433.164.433.375 0 .343-.21 1.21-.21 5.085 0 .497-.102.649-.344.649-.219 0-.285-.152-.309-.399-.098-.718-.258-1.707-1.058-2.574-.93-.988-3.426-2.418-6.93-2.418-1.707 0-3.98.125-6.156 1.914-1.73 1.461-2.856 3.79-2.856 7.602 0 6.664 4.266 11.664 10.817 11.664.804 0 1.89 0 2.64-.34.465-.219.582-.629.582-1.152v-2.91c0-1.555 0-2.73-.027-3.66-.035-1.051-.305-1.551-1.336-1.774-.246-.059-.777-.094-1.211-.094-.281 0-.473-.062-.473-.246 0-.246.227-.312.66-.312 1.618 0 3.579.093 4.504.093.97 0 2.614-.093 3.633-.093.406 0 .625.07.625.312 0 .184-.187.246-.406.246-.246 0-.465.035-.832.094-.844.16-1.16.691-1.192 1.773-.023.93-.023 2.165-.023 3.715v3.414h.008Zm11-12.363c0-4.723 0-5.59-.071-6.582-.063-1.05-.305-1.547-1.332-1.762-.246-.066-.778-.09-1.215-.09-.336 0-.524-.07-.524-.289 0-.214.215-.273.68-.273 1.645 0 3.606.098 4.254.098 1.063 0 3.422-.098 4.383-.098 1.957 0 4.039.188 5.715 1.336.87.59 2.113 2.168 2.113 4.242 0 2.293-.957 4.406-4.106 6.95 2.778 3.468 4.91 6.226 6.75 8.148 1.739 1.804 3.016 2.02 3.485 2.113.332.066.617.094.863.094.25 0 .367.09.367.246 0 .246-.207.309-.582.309h-2.957c-1.738 0-2.515-.153-3.32-.583-1.344-.718-2.52-2.18-4.262-4.566-1.234-1.71-2.668-3.805-3.074-4.273-.148-.188-.348-.22-.559-.22l-2.699-.058c-.16 0-.246.059-.246.239v.433c0 2.887 0 5.336.152 6.645.094.898.286 1.578 1.211 1.707.465.054 1.149.12 1.52.12.254 0 .371.09.371.247 0 .219-.215.309-.617.309-1.805 0-4.102-.09-4.57-.09-.586 0-2.547.09-3.79.09-.402 0-.613-.09-.613-.31 0-.155.121-.245.492-.245.47 0 .84-.067 1.118-.121.62-.13.777-.809.906-1.707.156-1.309.156-3.758.156-6.61v-5.449h-.008Zm3.663 2.441c0 .34.059.461.285.56.637.214 1.578.304 2.352.304 1.25 0 1.644-.125 2.207-.524.93-.68 1.828-2.109 1.828-4.652 0-4.398-2.922-5.668-4.746-5.668-.781 0-1.34.031-1.64.117-.227.07-.286.192-.286.442v9.425Zm22.734-2.44c0-4.724 0-5.59-.062-6.583-.055-1.055-.305-1.547-1.332-1.766-.246-.062-.777-.085-1.215-.085-.336 0-.531-.07-.531-.29 0-.214.223-.273.695-.273 1.64 0 3.598.098 4.473.098.992 0 7.168 0 7.765-.04.59-.058 1.083-.124 1.333-.183.148-.031.34-.121.496-.121.156 0 .191.121.191.27 0 .222-.16.593-.254 2.015-.027.32-.09 1.68-.152 2.047-.031.168-.098.344-.313.344-.219 0-.289-.16-.289-.434 0-.215-.02-.746-.183-1.117-.211-.559-.524-.93-2.079-1.11-.523-.062-3.789-.124-4.41-.124-.152 0-.215.09-.215.304v7.84c0 .219.032.356.215.356.692 0 4.262 0 4.97-.07.745-.067 1.214-.153 1.491-.466.211-.242.344-.402.5-.402.125 0 .215.066.215.254 0 .18-.156.684-.246 2.262a36.798 36.798 0 0 0-.125 2.07c0 .25 0 .598-.277.598-.22 0-.278-.133-.278-.282-.035-.316-.035-.714-.125-1.12-.16-.622-.597-1.087-1.742-1.208-.594-.058-3.668-.094-4.414-.094-.152 0-.184.122-.184.31v2.448c0 1.055-.03 3.907 0 4.813.063 2.137.56 2.601 3.739 2.601.797 0 2.094 0 2.914-.375.804-.367 1.176-1.023 1.394-2.297.067-.335.13-.46.344-.46.242 0 .242.246.242.554 0 .719-.242 2.828-.398 3.45-.219.804-.496.804-1.68.804-4.691 0-6.773-.187-8.601-.187-.72 0-2.676.086-3.918.086-.399 0-.621-.086-.621-.305 0-.156.12-.246.496-.246.464 0 .84-.067 1.12-.121.61-.13.774-.809.903-1.707.149-1.309.149-3.758.149-6.61v-5.449h.007Zm20.875 14.062c-.492-.207-.585-.368-.585-1.051 0-1.707.125-3.563.156-4.063.035-.46.125-.8.379-.8.277 0 .308.27.308.523 0 .406.114 1.055.278 1.586.68 2.293 2.511 3.133 4.445 3.133 2.785 0 4.156-1.899 4.156-3.54 0-1.519-.457-2.98-3.039-4.964l-1.433-1.11c-3.422-2.671-4.594-4.84-4.594-7.351 0-3.402 2.851-5.867 7.176-5.867 2.015 0 3.324.316 4.132.539.278.054.438.148.438.367 0 .406-.129 1.305-.129 3.719 0 .687-.094.925-.34.925-.222 0-.316-.18-.316-.554 0-.281-.149-1.238-.809-2.047-.465-.582-1.363-1.512-3.379-1.512-2.297 0-3.703 1.324-3.703 3.188 0 1.43.715 2.507 3.297 4.468l.867.653c3.727 2.879 5.098 4.953 5.098 7.898 0 1.797-.688 3.942-2.922 5.403-1.555.988-3.293 1.273-4.938 1.273-1.808 0-3.203-.219-4.542-.813m21.039-.003c-.508-.207-.594-.368-.594-1.051 0-1.707.117-3.563.148-4.063.04-.46.133-.8.38-.8.284 0 .308.27.308.523 0 .406.125 1.055.281 1.586.68 2.293 2.52 3.133 4.441 3.133 2.801 0 4.168-1.899 4.168-3.54 0-1.519-.468-2.98-3.05-4.964l-1.426-1.11c-3.414-2.671-4.594-4.84-4.594-7.351 0-3.402 2.848-5.867 7.176-5.867 2.02 0 3.32.316 4.133.539.277.054.433.148.433.367 0 .406-.125 1.305-.125 3.719 0 .687-.097.925-.34.925-.222 0-.312-.18-.312-.554 0-.281-.16-1.238-.809-2.047-.465-.582-1.375-1.512-3.382-1.512-2.301 0-3.704 1.324-3.704 3.188 0 1.43.711 2.507 3.297 4.468l.867.653c3.73 2.879 5.098 4.953 5.098 7.898 0 1.797-.684 3.942-2.926 5.403-1.554.988-3.289 1.273-4.933 1.273-1.797 0-3.192-.219-4.528-.813m-18.726-192.18c-9.434 0-19.29-3.124-19.29-3.124s-14.046-4.344-24.316-4.344C113.574 49.54 103 62.262 103 62.262V51.937s10.137-11.957 25.992-11.957c5.758 0 13.121.313 25.336 3.993 12.215 3.687 18.574 3.23 18.574 3.23 13.844 0 27.344-4.734 31.043-6.14V26.905c-3.945 1.242-18.84 5.68-31.308 5.68-9.438 0-19.293-3.125-19.293-3.125s-14.047-4.344-24.317-4.344C113.574 25.117 103 37.836 103 37.836V27.512s10.137-11.957 25.992-11.957c5.762 0 13.125.308 25.336 3.996 12.215 3.683 18.578 3.23 18.578 3.23 13.84 0 27.34-4.738 31.04-6.148V1s-16.872 6.922-31.548 6.922c-14.675 0-23.625-6.996-40.054-6.996-16.43 0-29.34 11.074-29.34 11.074S90.086.926 73.656.926c-16.433 0-25.379 6.996-40.047 6.996C18.937 7.922 2.06 1 2.06 1v162.352s15.254 6.359 30.515 6.359c12.32 0 28.281-8.953 39.406-8.234 9.915.648 15.758 5.175 20.204 10.855.988 1.781 3 1.875 3 1.875h15.648s1.984-.094 2.996-1.875c4.445-5.68 10.29-10.207 20.2-10.855 11.124-.72 25.296 8.074 39.413 8.234 15.688.18 30.508-6.36 30.508-6.36V149.02c-3.945 1.25-18.84 5.675-31.308 5.675-9.434 0-19.293-3.12-19.293-3.12s-14.047-4.348-24.317-4.348c-15.453 0-26.027 12.726-26.027 12.726V149.63s10.137-11.965 25.992-11.965c5.762 0 13.121.316 25.336 4 12.215 3.688 18.574 3.23 18.574 3.23 13.844 0 27.344-4.738 31.043-6.148V124.59c-3.945 1.25-18.84 5.683-31.308 5.683-9.434 0-19.293-3.125-19.293-3.125s-14.047-4.347-24.317-4.347c-15.453 0-26.027 12.722-26.027 12.722V125.2s10.137-11.953 25.992-11.953c5.762 0 13.125.309 25.336 3.996 12.215 3.68 18.578 3.223 18.578 3.223 13.84 0 27.34-4.735 31.04-6.14v-14.157c-3.946 1.246-18.84 5.68-31.31 5.68-9.433 0-19.292-3.118-19.292-3.118S139.3 98.38 129.03 98.38c-15.453 0-26.027 12.726-26.027 12.726v-10.328S113.14 88.82 128.996 88.82c5.762 0 13.125.313 25.336 4 12.215 3.68 18.578 3.223 18.578 3.223 13.84 0 27.34-4.738 31.04-6.14V75.745c-3.946 1.246-18.84 5.684-31.31 5.684-9.433 0-19.292-3.13-19.292-3.13s-14.047-4.347-24.313-4.347c-15.457 0-26.027 12.727-26.027 12.727V76.352s10.133-11.957 25.988-11.957c5.762 0 13.125.312 25.336 4 12.215 3.683 18.578 3.23 18.578 3.23 13.84 0 27.34-4.742 31.04-6.145V51.324c-3.95 1.246-18.837 5.684-31.31 5.684" style="stroke:none;fill-rule:nonzero;fill:#000;fill-opacity:1"/><path d="M485.655 155.948c-27.116 0-55.445-9-55.445-9s-40.376-12.51-69.895-12.51c-44.418 0-74.813 36.642-74.813 36.642v-29.734s29.137-34.436 74.712-34.436c16.55 0 37.716.9 72.826 11.497 35.11 10.62 53.39 9.304 53.39 9.304 39.792 0 78.597-13.635 89.23-17.685v-40.77c-11.34 3.578-54.153 16.358-89.994 16.358-27.127 0-55.456-9-55.456-9s-40.376-12.51-69.895-12.51c-44.418 0-74.813 36.63-74.813 36.63V71s29.137-34.437 74.712-34.437c16.562 0 37.727.89 72.826 11.51 35.11 10.608 53.401 9.303 53.401 9.303 39.781 0 78.586-13.646 89.219-17.707V-5.355s-48.494 19.935-90.679 19.935c-42.184 0-67.907-20.149-115.133-20.149s-84.335 31.894-84.335 31.894-37.131-31.894-84.357-31.894c-47.237 0-72.95 20.149-115.111 20.149-42.173 0-90.69-19.935-90.69-19.935v467.572s43.846 18.315 87.715 18.315c35.413 0 81.291-25.785 113.27-23.715 28.496 1.868 45.294 14.907 58.071 31.264 2.841 5.13 8.623 5.4 8.623 5.4h44.98s5.704-.27 8.612-5.4c12.778-16.357 29.575-29.396 58.061-31.264 31.978-2.07 72.714 23.254 113.292 23.716 45.093.517 87.692-18.315 87.692-18.315v-41.277c-11.34 3.6-54.153 16.346-89.993 16.346-27.116 0-55.456-8.988-55.456-8.988s-40.377-12.522-69.896-12.522c-44.418 0-74.813 36.653-74.813 36.653v-29.734s29.137-34.459 74.712-34.459c16.562 0 37.716.912 72.826 11.52 35.11 10.62 53.39 9.304 53.39 9.304 39.793 0 78.597-13.646 89.23-17.707v-40.77c-11.34 3.6-54.153 16.369-89.993 16.369-27.116 0-55.456-9-55.456-9s-40.377-12.522-69.896-12.522c-44.418 0-74.813 36.642-74.813 36.642V352.34s29.137-34.425 74.712-34.425c16.562 0 37.727.888 72.826 11.508 35.11 10.598 53.401 9.282 53.401 9.282 39.782 0 78.586-13.635 89.22-17.685v-40.77c-11.341 3.589-54.154 16.357-89.994 16.357-27.116 0-55.456-8.977-55.456-8.977s-40.377-12.533-69.896-12.533c-44.418 0-74.813 36.653-74.813 36.653v-29.745s29.137-34.436 74.712-34.436c16.562 0 37.727.9 72.826 11.52 35.11 10.597 53.401 9.28 53.401 9.28 39.782 0 78.586-13.646 89.22-17.684v-40.77c-11.341 3.589-54.154 16.369-89.994 16.369-27.116 0-55.456-9.012-55.456-9.012s-40.377-12.521-69.884-12.521c-44.43 0-74.814 36.653-74.814 36.653v-29.745s29.126-34.437 74.701-34.437c16.562 0 37.727.9 72.826 11.52 35.11 10.609 53.401 9.304 53.401 9.304 39.782 0 78.586-13.657 89.22-17.696v-40.77c-11.352 3.588-54.143 16.368-89.994 16.368Zm0 0" style="fill-rule:nonzero;fill:#006eab;fill-opacity:1;stroke-width:3.861;stroke-linecap:butt;stroke-linejoin:miter;stroke:#fff;stroke-opacity:1;stroke-miterlimit:4" transform="matrix(.3479 0 0 .34722 3.674 2.859)"/></svg>